<svg width="1173" height="379" viewBox="0 0 1173 379" fill="none" xmlns="http://www.w3.org/2000/svg">
<rect x="0.5" y="58.5" width="570" height="51" rx="2.5" stroke="#EBEBEB"/>
<path d="M27.891 79.926L26.617 87.128L23.133 79.926H21.95L20.338 89H21.521L22.808 81.785L26.279 89H27.462L29.074 79.926H27.891ZM29.6606 85.412C29.2706 87.622 30.4926 89.117 32.3906 89.117C33.7036 89.117 34.7436 88.441 35.3156 87.674L35.0686 89H36.2646L37.5256 81.876H36.3296L36.0956 83.176C35.8096 82.435 35.0296 81.759 33.7036 81.759C31.7796 81.759 30.0506 83.189 29.6606 85.412ZM35.7056 85.425C35.4066 87.102 34.1196 88.077 32.8196 88.077C31.5196 88.077 30.5836 87.089 30.8826 85.412C31.1686 83.735 32.4556 82.786 33.7556 82.786C35.0556 82.786 36.0046 83.774 35.7056 85.425ZM48.5468 89H49.7168L50.4578 84.801C50.8218 82.76 49.7298 81.746 48.1178 81.746C47.0258 81.746 45.9078 82.305 45.3098 83.332C45.0368 82.279 44.1528 81.746 42.9828 81.746C42.0468 81.746 41.1238 82.149 40.5258 82.903L40.7078 81.876H39.5248L38.2638 89H39.4468L40.1488 85.048V85.074C40.4088 83.54 41.3708 82.773 42.5668 82.773C43.7498 82.773 44.3868 83.514 44.1268 84.97L43.4118 89H44.5818L45.3228 84.879C45.6348 83.475 46.5578 82.773 47.7018 82.773C48.8718 82.773 49.5088 83.514 49.2618 84.97L48.5468 89ZM55.7913 82.76C57.0133 82.76 57.9103 83.527 57.6503 84.983H53.1393C53.5033 83.553 54.6213 82.76 55.7913 82.76ZM58.4043 86.803H57.1303C56.7403 87.57 55.9733 88.116 54.9073 88.116C53.6723 88.116 52.8013 87.297 52.9833 85.841H58.6773C58.7553 85.594 58.8073 85.386 58.8463 85.139C59.1843 83.215 58.0793 81.759 56.0123 81.759C53.9453 81.759 52.2423 83.176 51.8393 85.425C51.4363 87.687 52.6973 89.117 54.7253 89.117C56.4933 89.117 57.8063 88.103 58.4043 86.803Z" fill="#AAAAAA"/>
<rect x="0.5" y="130.5" width="1172" height="174" rx="2.5" stroke="#EBEBEB"/>
<path d="M29.568 156.593C29.412 157.486 29.087 158.279 28.593 158.972C28.099 159.665 27.4837 160.198 26.747 160.571L28.671 162.781H27.163L25.681 160.961C25.2563 161.056 24.8403 161.104 24.433 161.104C23.6357 161.104 22.9467 160.948 22.366 160.636C21.7853 160.315 21.339 159.869 21.027 159.297C20.7237 158.716 20.572 158.049 20.572 157.295C20.572 156.922 20.6023 156.567 20.663 156.229C20.819 155.354 21.1353 154.574 21.612 153.889C22.0973 153.204 22.704 152.671 23.432 152.29C24.16 151.909 24.953 151.718 25.811 151.718C26.591 151.718 27.2713 151.878 27.852 152.199C28.4327 152.511 28.879 152.957 29.191 153.538C29.503 154.11 29.659 154.777 29.659 155.54C29.659 155.904 29.6287 156.255 29.568 156.593ZM24.537 159.999C25.1523 159.999 25.7287 159.856 26.266 159.57C26.812 159.275 27.2713 158.859 27.644 158.322C28.0253 157.785 28.2767 157.161 28.398 156.45C28.45 156.164 28.476 155.887 28.476 155.618C28.476 154.751 28.2247 154.071 27.722 153.577C27.2193 153.074 26.5477 152.823 25.707 152.823C25.083 152.823 24.498 152.966 23.952 153.252C23.4147 153.538 22.9597 153.95 22.587 154.487C22.2143 155.024 21.963 155.648 21.833 156.359C21.781 156.645 21.755 156.922 21.755 157.191C21.755 158.058 22.0063 158.742 22.509 159.245C23.0117 159.748 23.6877 159.999 24.537 159.999ZM38.098 153.863L36.837 161H35.641L35.927 159.349C35.6497 159.921 35.251 160.359 34.731 160.662C34.211 160.965 33.6477 161.117 33.041 161.117C32.339 161.117 31.78 160.922 31.364 160.532C30.9567 160.133 30.753 159.561 30.753 158.816C30.753 158.521 30.7747 158.257 30.818 158.023L31.559 153.863H32.742L32.027 157.906C31.9924 158.088 31.975 158.283 31.975 158.491C31.975 159.02 32.1224 159.427 32.417 159.713C32.7117 159.99 33.1277 160.129 33.665 160.129C34.2804 160.129 34.809 159.943 35.251 159.57C35.7017 159.189 36.0137 158.634 36.187 157.906L36.902 153.863H38.098ZM43.1405 153.772C43.7558 153.772 44.2802 153.889 44.7135 154.123C45.1468 154.348 45.4718 154.66 45.6885 155.059C45.9138 155.449 46.0265 155.895 46.0265 156.398C46.0265 156.623 46.0092 156.836 45.9745 157.035C45.9225 157.304 45.8618 157.52 45.7925 157.685H40.1115C40.0768 157.945 40.0595 158.131 40.0595 158.244C40.0595 158.868 40.2372 159.34 40.5925 159.661C40.9565 159.973 41.4158 160.129 41.9705 160.129C42.5338 160.129 43.0365 159.986 43.4785 159.7C43.9205 159.405 44.2282 159.015 44.4015 158.53H45.6625C45.3852 159.293 44.9085 159.912 44.2325 160.389C43.5565 160.857 42.7635 161.091 41.8535 161.091C40.9522 161.091 40.2372 160.84 39.7085 160.337C39.1798 159.834 38.9155 159.137 38.9155 158.244C38.9155 157.967 38.9415 157.681 38.9935 157.386C39.1235 156.649 39.3878 156.008 39.7865 155.462C40.1852 154.916 40.6748 154.5 41.2555 154.214C41.8362 153.919 42.4645 153.772 43.1405 153.772ZM44.7785 157.113C44.8305 156.879 44.8565 156.662 44.8565 156.463C44.8565 155.9 44.6745 155.471 44.3105 155.176C43.9552 154.881 43.5088 154.734 42.9715 154.734C42.3302 154.734 41.7495 154.938 41.2295 155.345C40.7095 155.744 40.3672 156.333 40.2025 157.113H44.7785ZM49.9658 153.772C50.8585 153.772 51.5388 153.984 52.0068 154.409C52.4748 154.825 52.7131 155.388 52.7218 156.099H51.5518C51.5691 155.666 51.4305 155.315 51.1358 155.046C50.8498 154.777 50.4251 154.643 49.8618 154.643C49.4285 154.643 49.0775 154.751 48.8088 154.968C48.5488 155.176 48.4188 155.453 48.4188 155.8C48.4188 156.025 48.4925 156.212 48.6398 156.359C48.7871 156.498 48.9691 156.615 49.1858 156.71C49.4025 156.797 49.6971 156.892 50.0698 156.996C50.5465 157.126 50.9321 157.256 51.2268 157.386C51.5301 157.516 51.7858 157.707 51.9938 157.958C52.2018 158.209 52.3058 158.539 52.3058 158.946C52.3058 159.041 52.2885 159.202 52.2538 159.427C52.1585 159.921 51.8855 160.324 51.4348 160.636C50.9928 160.939 50.4121 161.091 49.6928 161.091C48.7915 161.091 48.0765 160.887 47.5478 160.48C47.0278 160.064 46.7721 159.496 46.7808 158.777H47.9508C47.9161 159.21 48.0591 159.561 48.3798 159.83C48.7091 160.099 49.1858 160.233 49.8098 160.233C50.2431 160.233 50.5811 160.125 50.8238 159.908C51.0665 159.691 51.1878 159.414 51.1878 159.076C51.1878 158.816 51.1098 158.604 50.9538 158.439C50.7978 158.274 50.6071 158.149 50.3818 158.062C50.1565 157.967 49.8445 157.863 49.4458 157.75C48.9951 157.62 48.6268 157.499 48.3408 157.386C48.0635 157.265 47.8251 157.087 47.6258 156.853C47.4351 156.619 47.3398 156.311 47.3398 155.93C47.3398 155.791 47.3528 155.644 47.3788 155.488C47.4655 154.977 47.7341 154.565 48.1848 154.253C48.6441 153.932 49.2378 153.772 49.9658 153.772ZM55.1516 158.764C55.1256 158.929 55.1126 159.076 55.1126 159.206C55.1126 159.483 55.1863 159.678 55.3336 159.791C55.4896 159.904 55.7409 159.96 56.0876 159.96H56.8156L56.6206 161H55.7366C55.1299 161 54.6706 160.879 54.3586 160.636C54.0553 160.393 53.9036 159.995 53.9036 159.44C53.9036 159.189 53.9253 158.955 53.9686 158.738L54.6576 154.89H53.5916L53.7606 153.863H54.8396L55.1516 152.082H56.3346L56.0226 153.863H57.8686L57.6866 154.89H55.8406L55.1516 158.764ZM59.6112 151.913C59.6112 151.662 59.7022 151.454 59.8842 151.289C60.0662 151.124 60.2915 151.042 60.5602 151.042C60.7769 151.042 60.9459 151.098 61.0672 151.211C61.1885 151.315 61.2492 151.454 61.2492 151.627C61.2492 151.878 61.1582 152.086 60.9762 152.251C60.7942 152.416 60.5689 152.498 60.3002 152.498C60.0835 152.498 59.9145 152.446 59.7932 152.342C59.6719 152.229 59.6112 152.086 59.6112 151.913ZM60.6512 153.863L59.3902 161H58.2072L59.4682 153.863H60.6512ZM65.7905 153.772C66.3885 153.772 66.9171 153.889 67.3765 154.123C67.8358 154.357 68.1911 154.695 68.4425 155.137C68.7025 155.57 68.8325 156.09 68.8325 156.697C68.8325 156.966 68.8065 157.243 68.7545 157.529C68.6245 158.257 68.3558 158.89 67.9485 159.427C67.5498 159.964 67.0558 160.376 66.4665 160.662C65.8771 160.948 65.2445 161.091 64.5685 161.091C63.6411 161.091 62.8958 160.831 62.3325 160.311C61.7778 159.791 61.5005 159.076 61.5005 158.166C61.5005 157.906 61.5265 157.633 61.5785 157.347C61.7085 156.619 61.9771 155.986 62.3845 155.449C62.7918 154.903 63.2901 154.487 63.8795 154.201C64.4775 153.915 65.1145 153.772 65.7905 153.772ZM65.6345 154.812C65.2098 154.812 64.7981 154.907 64.3995 155.098C64.0095 155.289 63.6671 155.583 63.3725 155.982C63.0865 156.372 62.8915 156.857 62.7875 157.438C62.7441 157.698 62.7225 157.915 62.7225 158.088C62.7225 158.729 62.9088 159.219 63.2815 159.557C63.6541 159.886 64.1308 160.051 64.7115 160.051C65.1361 160.051 65.5435 159.956 65.9335 159.765C66.3235 159.574 66.6615 159.284 66.9475 158.894C67.2421 158.495 67.4415 158.01 67.5455 157.438C67.5888 157.178 67.6105 156.961 67.6105 156.788C67.6105 156.138 67.4241 155.648 67.0515 155.319C66.6788 154.981 66.2065 154.812 65.6345 154.812ZM74.7027 153.746C75.4047 153.746 75.9593 153.945 76.3667 154.344C76.7827 154.734 76.9907 155.306 76.9907 156.06C76.9907 156.346 76.969 156.61 76.9257 156.853L76.1847 161H75.0017L75.7167 156.957C75.7513 156.775 75.7687 156.58 75.7687 156.372C75.7687 155.843 75.6213 155.44 75.3267 155.163C75.032 154.886 74.616 154.747 74.0787 154.747C73.4287 154.747 72.874 154.959 72.4147 155.384C71.9553 155.8 71.6563 156.411 71.5177 157.217V157.165L70.8417 161H69.6457L70.9067 153.863H72.1027L71.8037 155.54C72.0897 154.959 72.4927 154.517 73.0127 154.214C73.5327 153.902 74.096 153.746 74.7027 153.746Z" fill="#AAAAAA"/>
<rect x="602.234" y="58.5" width="570" height="51" rx="2.5" stroke="#EBEBEB"/>
<path d="M624.503 80.797L623.957 83.93H627.441L627.272 84.84H623.788L623.229 88.038H627.103L626.934 89H621.877L623.489 79.835H628.546L628.377 80.797H624.503ZM638.684 81.746C639.394 81.746 639.953 81.941 640.361 82.331C640.768 82.721 640.972 83.2887 640.972 84.034C640.972 84.2767 640.946 84.5497 640.894 84.853L640.166 89H638.983L639.698 84.957C639.732 84.775 639.75 84.5843 639.75 84.385C639.75 83.865 639.607 83.4707 639.321 83.202C639.043 82.9247 638.653 82.786 638.151 82.786C637.518 82.786 636.976 82.994 636.526 83.41C636.084 83.8173 635.793 84.4197 635.655 85.217L634.979 89H633.809L634.524 84.957C634.558 84.775 634.576 84.5843 634.576 84.385C634.576 83.865 634.433 83.4707 634.147 83.202C633.869 82.9247 633.479 82.786 632.977 82.786C632.344 82.786 631.802 82.994 631.352 83.41C630.91 83.8173 630.619 84.4197 630.481 85.217V85.152L629.805 89H628.609L629.87 81.863H631.066L630.78 83.488C631.048 82.9247 631.43 82.4957 631.924 82.201C632.426 81.8977 632.968 81.746 633.549 81.746C634.155 81.746 634.654 81.902 635.044 82.214C635.434 82.526 635.672 82.981 635.759 83.579C636.062 82.9983 636.474 82.5477 636.994 82.227C637.522 81.9063 638.086 81.746 638.684 81.746ZM646.176 81.772C646.878 81.772 647.445 81.9497 647.879 82.305C648.312 82.6517 648.572 83.111 648.659 83.683L648.984 81.863H650.154L648.893 89H647.71L648.035 87.18C647.757 87.752 647.346 88.2157 646.8 88.571C646.254 88.9177 645.634 89.091 644.941 89.091C644.1 89.091 643.433 88.844 642.939 88.35C642.453 87.8473 642.211 87.1583 642.211 86.283C642.211 85.9623 642.241 85.6503 642.302 85.347C642.432 84.619 642.683 83.9863 643.056 83.449C643.428 82.903 643.883 82.487 644.421 82.201C644.967 81.915 645.552 81.772 646.176 81.772ZM646.384 82.825C645.647 82.825 645.019 83.059 644.499 83.527C643.979 83.9863 643.649 84.6233 643.511 85.438C643.467 85.6807 643.446 85.893 643.446 86.075C643.446 86.699 643.623 87.1843 643.979 87.531C644.334 87.8777 644.828 88.051 645.461 88.051C645.92 88.051 646.353 87.9427 646.761 87.726C647.168 87.5093 647.51 87.206 647.788 86.816C648.065 86.4173 648.251 85.958 648.347 85.438C648.381 85.256 648.399 85.061 648.399 84.853C648.399 84.229 648.212 83.735 647.84 83.371C647.476 83.007 646.99 82.825 646.384 82.825ZM652.166 79.913C652.166 79.6617 652.257 79.4537 652.439 79.289C652.621 79.1243 652.846 79.042 653.115 79.042C653.332 79.042 653.501 79.0983 653.622 79.211C653.743 79.315 653.804 79.4537 653.804 79.627C653.804 79.8783 653.713 80.0863 653.531 80.251C653.349 80.4157 653.124 80.498 652.855 80.498C652.638 80.498 652.469 80.446 652.348 80.342C652.227 80.2293 652.166 80.0863 652.166 79.913ZM653.206 81.863L651.945 89H650.762L652.023 81.863H653.206ZM656.759 79.38L655.069 89H653.873L655.563 79.38H656.759Z" fill="#AAAAAA"/>
<path d="M16.75 10.45V28H12.475V20.775H5.825V28H1.55V10.45H5.825V17.325H12.475V10.45H16.75ZM18.9861 21C18.9861 19.5667 19.2528 18.3083 19.7861 17.225C20.3361 16.1417 21.0778 15.3083 22.0111 14.725C22.9445 14.1417 23.9861 13.85 25.1361 13.85C26.1195 13.85 26.9778 14.05 27.7111 14.45C28.4611 14.85 29.0361 15.375 29.4361 16.025V14.05H33.7111V28H29.4361V26.025C29.0195 26.675 28.4361 27.2 27.6861 27.6C26.9528 28 26.0945 28.2 25.1111 28.2C23.9778 28.2 22.9445 27.9083 22.0111 27.325C21.0778 26.725 20.3361 25.8833 19.7861 24.8C19.2528 23.7 18.9861 22.4333 18.9861 21ZM29.4361 21.025C29.4361 19.9583 29.1361 19.1167 28.5361 18.5C27.9528 17.8833 27.2361 17.575 26.3861 17.575C25.5361 17.575 24.8111 17.8833 24.2111 18.5C23.6278 19.1 23.3361 19.9333 23.3361 21C23.3361 22.0667 23.6278 22.9167 24.2111 23.55C24.8111 24.1667 25.5361 24.475 26.3861 24.475C27.2361 24.475 27.9528 24.1667 28.5361 23.55C29.1361 22.9333 29.4361 22.0917 29.4361 21.025ZM43.0789 24L46.1039 14.05H50.6539L45.7039 28H40.4289L35.4789 14.05H40.0539L43.0789 24ZM65.6033 20.8C65.6033 21.2 65.5783 21.6167 65.5283 22.05H55.8533C55.92 22.9167 56.195 23.5833 56.6783 24.05C57.1783 24.5 57.7867 24.725 58.5033 24.725C59.57 24.725 60.3117 24.275 60.7283 23.375H65.2783C65.045 24.2917 64.62 25.1167 64.0033 25.85C63.4033 26.5833 62.645 27.1583 61.7283 27.575C60.8117 27.9917 59.7867 28.2 58.6533 28.2C57.2867 28.2 56.07 27.9083 55.0033 27.325C53.9367 26.7417 53.1033 25.9083 52.5033 24.825C51.9033 23.7417 51.6033 22.475 51.6033 21.025C51.6033 19.575 51.895 18.3083 52.4783 17.225C53.0783 16.1417 53.9117 15.3083 54.9783 14.725C56.045 14.1417 57.27 13.85 58.6533 13.85C60.0033 13.85 61.2033 14.1333 62.2533 14.7C63.3033 15.2667 64.12 16.075 64.7033 17.125C65.3033 18.175 65.6033 19.4 65.6033 20.8ZM61.2283 19.675C61.2283 18.9417 60.9783 18.3583 60.4783 17.925C59.9783 17.4917 59.3533 17.275 58.6033 17.275C57.8867 17.275 57.2783 17.4833 56.7783 17.9C56.295 18.3167 55.995 18.9083 55.8783 19.675H61.2283ZM72.3064 21C72.3064 19.5667 72.5731 18.3083 73.1064 17.225C73.6564 16.1417 74.3981 15.3083 75.3314 14.725C76.2648 14.1417 77.3064 13.85 78.4564 13.85C79.4398 13.85 80.2981 14.05 81.0314 14.45C81.7814 14.85 82.3564 15.375 82.7564 16.025V14.05H87.0314V28H82.7564V26.025C82.3398 26.675 81.7564 27.2 81.0064 27.6C80.2731 28 79.4148 28.2 78.4314 28.2C77.2981 28.2 76.2648 27.9083 75.3314 27.325C74.3981 26.725 73.6564 25.8833 73.1064 24.8C72.5731 23.7 72.3064 22.4333 72.3064 21ZM82.7564 21.025C82.7564 19.9583 82.4564 19.1167 81.8564 18.5C81.2731 17.8833 80.5564 17.575 79.7064 17.575C78.8564 17.575 78.1314 17.8833 77.5314 18.5C76.9481 19.1 76.6564 19.9333 76.6564 21C76.6564 22.0667 76.9481 22.9167 77.5314 23.55C78.1314 24.1667 78.8564 24.475 79.7064 24.475C80.5564 24.475 81.2731 24.1667 81.8564 23.55C82.4564 22.9333 82.7564 22.0917 82.7564 21.025ZM94.5721 21.05C94.5721 19.6667 94.8554 18.4333 95.4221 17.35C96.0054 16.2667 96.7804 15.425 97.7471 14.825C98.7304 14.2083 99.7971 13.9 100.947 13.9C101.83 13.9 102.622 14.0583 103.322 14.375C104.022 14.675 104.589 15.1 105.022 15.65V14.05H109.297V34.65H105.022V26.25C104.539 26.8333 103.947 27.3 103.247 27.65C102.564 28 101.78 28.175 100.897 28.175C99.7637 28.175 98.7137 27.875 97.7471 27.275C96.7804 26.675 96.0054 25.8333 95.4221 24.75C94.8554 23.6667 94.5721 22.4333 94.5721 21.05ZM105.022 21.025C105.022 20.275 104.872 19.65 104.572 19.15C104.289 18.6333 103.914 18.25 103.447 18C102.98 17.7333 102.489 17.6 101.972 17.6C101.472 17.6 100.989 17.7333 100.522 18C100.055 18.25 99.6721 18.6333 99.3721 19.15C99.0721 19.6667 98.9221 20.3 98.9221 21.05C98.9221 21.8 99.0721 22.4333 99.3721 22.95C99.6721 23.45 100.055 23.8333 100.522 24.1C100.989 24.35 101.472 24.475 101.972 24.475C102.472 24.475 102.955 24.35 103.422 24.1C103.905 23.8333 104.289 23.4417 104.572 22.925C104.872 22.4083 105.022 21.775 105.022 21.025ZM126.165 14.05V28H121.89V26.1C121.457 26.7167 120.865 27.2167 120.115 27.6C119.382 27.9667 118.565 28.15 117.665 28.15C116.598 28.15 115.657 27.9167 114.84 27.45C114.023 26.9667 113.39 26.275 112.94 25.375C112.49 24.475 112.265 23.4167 112.265 22.2V14.05H116.515V21.625C116.515 22.5583 116.757 23.2833 117.24 23.8C117.723 24.3167 118.373 24.575 119.19 24.575C120.023 24.575 120.682 24.3167 121.165 23.8C121.648 23.2833 121.89 22.5583 121.89 21.625V14.05H126.165ZM142.386 20.8C142.386 21.2 142.361 21.6167 142.311 22.05H132.636C132.702 22.9167 132.977 23.5833 133.461 24.05C133.961 24.5 134.569 24.725 135.286 24.725C136.352 24.725 137.094 24.275 137.511 23.375H142.061C141.827 24.2917 141.402 25.1167 140.786 25.85C140.186 26.5833 139.427 27.1583 138.511 27.575C137.594 27.9917 136.569 28.2 135.436 28.2C134.069 28.2 132.852 27.9083 131.786 27.325C130.719 26.7417 129.886 25.9083 129.286 24.825C128.686 23.7417 128.386 22.475 128.386 21.025C128.386 19.575 128.677 18.3083 129.261 17.225C129.861 16.1417 130.694 15.3083 131.761 14.725C132.827 14.1417 134.052 13.85 135.436 13.85C136.786 13.85 137.986 14.1333 139.036 14.7C140.086 15.2667 140.902 16.075 141.486 17.125C142.086 18.175 142.386 19.4 142.386 20.8ZM138.011 19.675C138.011 18.9417 137.761 18.3583 137.261 17.925C136.761 17.4917 136.136 17.275 135.386 17.275C134.669 17.275 134.061 17.4833 133.561 17.9C133.077 18.3167 132.777 18.9083 132.661 19.675H138.011ZM150.316 28.2C149.099 28.2 148.016 27.9917 147.066 27.575C146.116 27.1583 145.366 26.5917 144.816 25.875C144.266 25.1417 143.957 24.325 143.891 23.425H148.116C148.166 23.9083 148.391 24.3 148.791 24.6C149.191 24.9 149.682 25.05 150.266 25.05C150.799 25.05 151.207 24.95 151.491 24.75C151.791 24.5333 151.941 24.2583 151.941 23.925C151.941 23.525 151.732 23.2333 151.316 23.05C150.899 22.85 150.224 22.6333 149.291 22.4C148.291 22.1667 147.457 21.925 146.791 21.675C146.124 21.4083 145.549 21 145.066 20.45C144.582 19.8833 144.341 19.125 144.341 18.175C144.341 17.375 144.557 16.65 144.991 16C145.441 15.3333 146.091 14.8083 146.941 14.425C147.807 14.0417 148.832 13.85 150.016 13.85C151.766 13.85 153.141 14.2833 154.141 15.15C155.157 16.0167 155.741 17.1667 155.891 18.6H151.941C151.874 18.1167 151.657 17.7333 151.291 17.45C150.941 17.1667 150.474 17.025 149.891 17.025C149.391 17.025 149.007 17.125 148.741 17.325C148.474 17.5083 148.341 17.7667 148.341 18.1C148.341 18.5 148.549 18.8 148.966 19C149.399 19.2 150.066 19.4 150.966 19.6C151.999 19.8667 152.841 20.1333 153.491 20.4C154.141 20.65 154.707 21.0667 155.191 21.65C155.691 22.2167 155.949 22.9833 155.966 23.95C155.966 24.7667 155.732 25.5 155.266 26.15C154.816 26.7833 154.157 27.2833 153.291 27.65C152.441 28.0167 151.449 28.2 150.316 28.2ZM166.356 24.375V28H164.181C162.631 28 161.423 27.625 160.556 26.875C159.69 26.1083 159.256 24.8667 159.256 23.15V17.6H157.556V14.05H159.256V10.65H163.531V14.05H166.331V17.6H163.531V23.2C163.531 23.6167 163.631 23.9167 163.831 24.1C164.031 24.2833 164.365 24.375 164.831 24.375H166.356ZM170.888 12.6C170.138 12.6 169.521 12.3833 169.038 11.95C168.571 11.5 168.338 10.95 168.338 10.3C168.338 9.63333 168.571 9.08333 169.038 8.65C169.521 8.2 170.138 7.975 170.888 7.975C171.621 7.975 172.221 8.2 172.688 8.65C173.171 9.08333 173.413 9.63333 173.413 10.3C173.413 10.95 173.171 11.5 172.688 11.95C172.221 12.3833 171.621 12.6 170.888 12.6ZM173.013 14.05V28H168.738V14.05H173.013ZM182.461 28.2C181.094 28.2 179.861 27.9083 178.761 27.325C177.677 26.7417 176.819 25.9083 176.186 24.825C175.569 23.7417 175.261 22.475 175.261 21.025C175.261 19.5917 175.577 18.3333 176.211 17.25C176.844 16.15 177.711 15.3083 178.811 14.725C179.911 14.1417 181.144 13.85 182.511 13.85C183.877 13.85 185.111 14.1417 186.211 14.725C187.311 15.3083 188.177 16.15 188.811 17.25C189.444 18.3333 189.761 19.5917 189.761 21.025C189.761 22.4583 189.436 23.725 188.786 24.825C188.152 25.9083 187.277 26.7417 186.161 27.325C185.061 27.9083 183.827 28.2 182.461 28.2ZM182.461 24.5C183.277 24.5 183.969 24.2 184.536 23.6C185.119 23 185.411 22.1417 185.411 21.025C185.411 19.9083 185.127 19.05 184.561 18.45C184.011 17.85 183.327 17.55 182.511 17.55C181.677 17.55 180.986 17.85 180.436 18.45C179.886 19.0333 179.611 19.8917 179.611 21.025C179.611 22.1417 179.877 23 180.411 23.6C180.961 24.2 181.644 24.5 182.461 24.5ZM200.529 13.9C202.162 13.9 203.462 14.4333 204.429 15.5C205.412 16.55 205.904 18 205.904 19.85V28H201.654V20.425C201.654 19.4917 201.412 18.7667 200.929 18.25C200.445 17.7333 199.795 17.475 198.979 17.475C198.162 17.475 197.512 17.7333 197.029 18.25C196.545 18.7667 196.304 19.4917 196.304 20.425V28H192.029V14.05H196.304V15.9C196.737 15.2833 197.32 14.8 198.054 14.45C198.787 14.0833 199.612 13.9 200.529 13.9ZM219.297 9.475C221.08 9.475 222.505 9.94167 223.572 10.875C224.655 11.8083 225.197 13.125 225.197 14.825C225.197 16.3917 224.68 17.6167 223.647 18.5C222.63 19.3667 221.28 19.8083 219.597 19.825L219.472 21.7H215.722L215.597 17.05H217.097C218.38 17.05 219.355 16.8917 220.022 16.575C220.705 16.2583 221.047 15.6833 221.047 14.85C221.047 14.2667 220.889 13.8083 220.572 13.475C220.255 13.1417 219.814 12.975 219.247 12.975C218.647 12.975 218.18 13.15 217.847 13.5C217.514 13.8333 217.347 14.2917 217.347 14.875H213.322C213.289 13.8583 213.497 12.9417 213.947 12.125C214.414 11.3083 215.097 10.6667 215.997 10.2C216.914 9.71667 218.014 9.475 219.297 9.475ZM217.647 28.2C216.897 28.2 216.28 27.9833 215.797 27.55C215.33 27.1 215.097 26.55 215.097 25.9C215.097 25.2333 215.33 24.675 215.797 24.225C216.28 23.775 216.897 23.55 217.647 23.55C218.38 23.55 218.98 23.775 219.447 24.225C219.93 24.675 220.172 25.2333 220.172 25.9C220.172 26.55 219.93 27.1 219.447 27.55C218.98 27.9833 218.38 28.2 217.647 28.2Z" fill="#4F5955"/>
<rect y="325" width="140" height="54" rx="3" fill="#4F5955"/>
<path d="M45.2357 358.112C44.4144 358.112 43.6784 357.979 43.0277 357.712C42.377 357.445 41.8544 357.051 41.4597 356.528C41.0757 356.005 40.873 355.376 40.8517 354.64H43.7637C43.8064 355.056 43.9504 355.376 44.1957 355.6C44.441 355.813 44.761 355.92 45.1557 355.92C45.561 355.92 45.881 355.829 46.1157 355.648C46.3504 355.456 46.4677 355.195 46.4677 354.864C46.4677 354.587 46.3717 354.357 46.1797 354.176C45.9984 353.995 45.769 353.845 45.4917 353.728C45.225 353.611 44.841 353.477 44.3397 353.328C43.6144 353.104 43.0224 352.88 42.5637 352.656C42.105 352.432 41.7104 352.101 41.3797 351.664C41.049 351.227 40.8837 350.656 40.8837 349.952C40.8837 348.907 41.2624 348.091 42.0197 347.504C42.777 346.907 43.7637 346.608 44.9797 346.608C46.217 346.608 47.2144 346.907 47.9717 347.504C48.729 348.091 49.1344 348.912 49.1877 349.968H46.2277C46.2064 349.605 46.073 349.323 45.8277 349.12C45.5824 348.907 45.2677 348.8 44.8837 348.8C44.553 348.8 44.2864 348.891 44.0837 349.072C43.881 349.243 43.7797 349.493 43.7797 349.824C43.7797 350.187 43.9504 350.469 44.2917 350.672C44.633 350.875 45.1664 351.093 45.8917 351.328C46.617 351.573 47.2037 351.808 47.6517 352.032C48.1104 352.256 48.505 352.581 48.8357 353.008C49.1664 353.435 49.3317 353.984 49.3317 354.656C49.3317 355.296 49.1664 355.877 48.8357 356.4C48.5157 356.923 48.0464 357.339 47.4277 357.648C46.809 357.957 46.0784 358.112 45.2357 358.112ZM59.8314 349.072V358H57.0954V356.784C56.8181 357.179 56.4394 357.499 55.9594 357.744C55.4901 357.979 54.9674 358.096 54.3914 358.096C53.7088 358.096 53.1061 357.947 52.5834 357.648C52.0608 357.339 51.6554 356.896 51.3674 356.32C51.0794 355.744 50.9354 355.067 50.9354 354.288V349.072H53.6554V353.92C53.6554 354.517 53.8101 354.981 54.1194 355.312C54.4288 355.643 54.8448 355.808 55.3674 355.808C55.9008 355.808 56.3221 355.643 56.6314 355.312C56.9408 354.981 57.0954 354.517 57.0954 353.92V349.072H59.8314ZM64.5327 350.336C64.7887 349.92 65.1567 349.584 65.6367 349.328C66.1167 349.072 66.666 348.944 67.2847 348.944C68.0207 348.944 68.6874 349.131 69.2847 349.504C69.882 349.877 70.3514 350.411 70.6927 351.104C71.0447 351.797 71.2207 352.603 71.2207 353.52C71.2207 354.437 71.0447 355.248 70.6927 355.952C70.3514 356.645 69.882 357.184 69.2847 357.568C68.6874 357.941 68.0207 358.128 67.2847 358.128C66.6554 358.128 66.106 358.005 65.6367 357.76C65.1674 357.504 64.7994 357.168 64.5327 356.752V358H61.7967V346.16H64.5327V350.336ZM68.4367 353.52C68.4367 352.837 68.2447 352.304 67.8607 351.92C67.4874 351.525 67.0234 351.328 66.4687 351.328C65.9247 351.328 65.4607 351.525 65.0767 351.92C64.7034 352.315 64.5167 352.853 64.5167 353.536C64.5167 354.219 64.7034 354.757 65.0767 355.152C65.4607 355.547 65.9247 355.744 66.4687 355.744C67.0127 355.744 67.4767 355.547 67.8607 355.152C68.2447 354.747 68.4367 354.203 68.4367 353.52ZM84.0481 348.976C85.1574 348.976 86.0374 349.312 86.6881 349.984C87.3494 350.656 87.6801 351.589 87.6801 352.784V358H84.9601V353.152C84.9601 352.576 84.8054 352.133 84.4961 351.824C84.1974 351.504 83.7814 351.344 83.2481 351.344C82.7147 351.344 82.2934 351.504 81.9841 351.824C81.6854 352.133 81.5361 352.576 81.5361 353.152V358H78.8161V353.152C78.8161 352.576 78.6614 352.133 78.3521 351.824C78.0534 351.504 77.6374 351.344 77.1041 351.344C76.5707 351.344 76.1494 351.504 75.8401 351.824C75.5414 352.133 75.3921 352.576 75.3921 353.152V358H72.6561V349.072H75.3921V350.192C75.6694 349.819 76.0321 349.525 76.4801 349.312C76.9281 349.088 77.4347 348.976 78.0001 348.976C78.6721 348.976 79.2694 349.12 79.7921 349.408C80.3254 349.696 80.7414 350.107 81.0401 350.64C81.3494 350.149 81.7707 349.749 82.3041 349.44C82.8374 349.131 83.4187 348.976 84.0481 348.976ZM90.9696 348.144C90.4896 348.144 90.0949 348.005 89.7856 347.728C89.4869 347.44 89.3376 347.088 89.3376 346.672C89.3376 346.245 89.4869 345.893 89.7856 345.616C90.0949 345.328 90.4896 345.184 90.9696 345.184C91.4389 345.184 91.8229 345.328 92.1216 345.616C92.4309 345.893 92.5856 346.245 92.5856 346.672C92.5856 347.088 92.4309 347.44 92.1216 347.728C91.8229 348.005 91.4389 348.144 90.9696 348.144ZM92.3296 349.072V358H89.5936V349.072H92.3296ZM99.2883 355.68V358H97.8963C96.9043 358 96.131 357.76 95.5763 357.28C95.0216 356.789 94.7443 355.995 94.7443 354.896V351.344H93.6563V349.072H94.7443V346.896H97.4803V349.072H99.2723V351.344H97.4803V354.928C97.4803 355.195 97.5443 355.387 97.6723 355.504C97.8003 355.621 98.0136 355.68 98.3123 355.68H99.2883Z" fill="#F2EDDC"/>
</svg>
